<?xml version="1.0" standalone="no"?><!DOCTYPE svg PUBLIC "-//W3C//DTD SVG 1.1//EN" "http://www.w3.org/Graphics/SVG/1.1/DTD/svg11.dtd"><svg t="1623046084794" class="icon" viewBox="0 0 1210 1024" version="1.1" xmlns="http://www.w3.org/2000/svg" p-id="9694" xmlns:xlink="http://www.w3.org/1999/xlink" width="236.328125" height="200"><defs><style type="text/css"></style></defs><path d="M600.317668 0.466302c-1.072495 0.233151-5.688889 1.865209-10.258652 3.637159C562.360656 14.921676 13.895811 234.36357 12.357013 235.249545c-11.284517 6.574863-15.527869 21.449909-9.465938 33.060838 2.238251 4.243352 6.994536 8.766485 11.144626 10.724954 1.91184 0.885974 30.356284 10.258652 63.230601 20.890346L137.092896 319.183971v88.64408c0 84.027687 0.04663 88.69071 0.839344 89.017122 13.616029 5.269217 466.76867 177.101639 467.095082 177.101639 0.279781 0 84.58725-39.868852 187.453552-88.64408l186.98725-88.59745 0.139891-85.799635c0.09326-81.229872 0.139891-85.846266 0.932604-86.079417 0.419672-0.139891 13.895811-3.310747 29.936612-7.041166 16.040801-3.730419 29.51694-6.901275 29.936612-7.041166 0.792714-0.233151 0.839344 16.413843 0.932605 335.644444l0.139891 335.877596 1.259016 4.476503c2.284882 8.300182 5.87541 14.735155 11.517669 20.610564 5.782149 6.061931 12.683424 10.258652 20.890346 12.776685 3.730419 1.119126 4.802914 1.259016 12.263752 1.259017 7.134426 0.04663 8.626594-0.09326 12.123862-1.025865 8.113661-2.238251 15.154827-6.295082 21.030236-12.170492 5.642259-5.642259 9.652459-12.403643 12.170492-20.563935l1.072496-3.497267 0.233151-346.41603 0.233151-346.416029 29.377049-5.502368c16.180692-3.030965 30.263024-5.87541 31.335519-6.248451 3.077596-1.165756 6.994536-4.383242 9.512569-7.693989 5.87541-7.83388 6.668124-18.139162 2.144991-26.812387-1.771949-3.404007-6.668124-8.393443-9.932241-10.118761-4.476503-2.424772-584.649909-233.897268-587.447723-234.4102-3.124226-0.559563-6.155191-0.606193-8.953006-0.046631z" fill="#bd8cbb" p-id="9695"></path><path d="M137.186157 699.267031l0.13989 125.855009 1.025866 3.030965c2.0051 5.782149 5.315847 10.351913 9.559198 13.196357 1.632058 1.072495 63.183971 25.786521 177.334791 71.204372 230.4 91.721676 229.001093 91.162113 252.735883 100.581421 22.708925 9.046266 24.387614 9.512568 30.449545 8.626594 3.310747-0.466302 5.409107-1.445537 27.371949-12.403643 18.045902-8.999636 271.434608-136.766485 324.266666-163.43898 7.460838-3.777049 8.953005-4.756284 11.70419-7.460838 3.310747-3.217486 5.409107-6.808015 6.714754-11.284518 0.699454-2.284882 0.746084-14.548634 0.652823-128.04663l-0.139891-125.528597-181.391621 86.079417c-99.742077 47.32969-182.837158 86.545719-184.655737 87.198543-2.657923 0.979235-4.150091 1.212386-7.927141 1.212386-4.056831 0-5.175956-0.186521-8.626593-1.398907-2.191621-0.746084-106.037158-39.962113-230.819673-87.105283-124.782514-47.143169-227.229144-85.799636-227.695446-85.892896-0.746084-0.233151-0.792714 5.595628-0.699453 125.575228z" fill="#bd8cbb" p-id="9696"></path></svg>