<?xml version="1.0" standalone="no"?><!DOCTYPE svg PUBLIC "-//W3C//DTD SVG 1.1//EN" "http://www.w3.org/Graphics/SVG/1.1/DTD/svg11.dtd"><svg t="1623045931167" class="icon" viewBox="0 0 1024 1024" version="1.1" xmlns="http://www.w3.org/2000/svg" p-id="9336" xmlns:xlink="http://www.w3.org/1999/xlink" width="200" height="200"><defs><style type="text/css"></style></defs><path d="M512 736a32 32 0 0 1-15.88-4.22L216 571.68a16 16 0 0 0-24 13.88V736a32 32 0 0 0 16.46 28l288 160a32 32 0 0 0 31.08 0l288-160a32 32 0 0 0 16.46-28v-150.44a16 16 0 0 0-24-13.88l-280.12 160.1A32 32 0 0 1 512 736z" p-id="9337" fill="#515151"></path><path d="M991.84 381v-0.22a32 32 0 0 0-16-24.56l-448-256a32 32 0 0 0-31.76 0l-448 256a32 32 0 0 0 0 55.56l448 256a32 32 0 0 0 31.76 0L922 442.56a4 4 0 0 1 6 3.48v289.06c0 17.22 13.24 32 30.46 32.86A32 32 0 0 0 992 736V384a29.52 29.52 0 0 0-0.16-3z" p-id="9338" fill="#515151"></path></svg>